<svg width="800" height="800" viewBox="0 0 800 800" fill="none" xmlns="http://www.w3.org/2000/svg">
<g clip-path="url(#clip0_1_3)">
<path d="M308.342 417C305.464 417.004 302.621 416.368 300.017 415.138C297.414 413.907 295.114 412.113 293.284 409.883C271.785 383.753 241.137 364.474 206.984 355.599C172.548 346.649 136.76 348.966 106.216 362.123C96.313 366.387 84.8363 361.788 80.5863 351.844C76.3363 341.902 80.9199 330.384 90.8256 326.117C169.613 292.18 267.416 316.917 323.377 384.934C330.24 393.275 329.067 405.623 320.757 412.513C317.266 415.416 312.875 417.004 308.342 417ZM768.683 384.111C775.443 375.685 774.119 363.354 765.726 356.567C697.285 301.23 596.526 296.736 526.145 345.879C517.297 352.057 515.114 364.266 521.268 373.147C527.423 382.03 539.588 384.22 548.433 378.042C575.719 358.991 610.314 349.501 645.835 351.317C681.066 353.119 714.951 365.821 741.244 387.079C744.706 389.887 749.023 391.417 753.474 391.414C759.176 391.414 764.829 388.917 768.683 384.111Z" fill="url(#paint0_linear_1_3)" stroke="black" stroke-width="0.00666667"/>
<path d="M646.355 498.093L503.231 308.512L541.426 226.923C545.647 217.905 541.769 207.17 532.764 202.945C523.759 198.719 513.038 202.603 508.816 211.618L472.446 289.307L311.662 273.918L295.46 218.908C294.537 215.775 292.782 212.952 290.382 210.74L235.056 159.763C227.738 153.021 216.346 153.493 209.611 160.82C202.877 168.148 203.349 179.554 210.667 186.297L262.323 233.895L278.292 288.111L148.664 499.532C143.461 508.018 146.113 519.121 154.59 524.332C156.605 525.572 158.844 526.402 161.18 526.775C163.515 527.148 165.902 527.056 168.202 526.505C170.502 525.954 172.671 524.955 174.585 523.564C176.499 522.173 178.121 520.418 179.357 518.399L298.725 323.714L391.703 458.426L373.525 500.627C373.466 500.766 373.429 500.911 373.373 501.051C373.109 501.702 372.883 502.368 372.697 503.045C372.557 503.56 372.443 504.076 372.35 504.595C372.323 504.745 372.287 504.893 372.265 505.044C372.058 506.402 372.007 507.778 372.114 509.147C372.128 509.323 372.153 509.5 372.172 509.676C372.225 510.173 372.297 510.666 372.392 511.156C372.432 511.366 372.474 511.577 372.521 511.786C372.635 512.28 372.77 512.766 372.924 513.248C372.977 513.413 373.019 513.58 373.077 513.744C373.3 514.379 373.555 515.001 373.848 515.607C373.904 515.723 373.971 515.832 374.028 515.946C374.284 516.45 374.563 516.942 374.866 517.421C374.911 517.493 374.944 517.569 374.991 517.641C375.05 517.73 375.122 517.808 375.181 517.897C375.483 518.343 375.805 518.775 376.15 519.194C376.249 519.316 376.344 519.442 376.449 519.56C377.352 520.609 378.374 521.549 379.493 522.361C379.632 522.461 379.777 522.55 379.919 522.645C380.33 522.925 380.752 523.194 381.193 523.443C381.407 523.565 381.625 523.677 381.845 523.791C382.038 523.891 382.22 524.003 382.42 524.097C382.61 524.185 382.803 524.246 382.994 524.329C383.272 524.447 383.547 524.561 383.831 524.666C384.242 524.819 384.653 524.948 385.069 525.07C385.317 525.141 385.561 525.216 385.812 525.277C386.307 525.399 386.804 525.489 387.304 525.567C387.492 525.597 387.676 525.636 387.866 525.659C388.595 525.749 389.325 525.806 390.053 525.806L390.157 525.802L631.905 526.999H631.996C638.809 526.999 645.045 523.145 648.098 517.041C649.599 514.033 650.232 510.666 649.924 507.318C649.616 503.97 648.38 500.775 646.355 498.093ZM334.656 312.345L456.213 323.979L410.33 421.987L334.656 312.345ZM418.324 489.878L485.95 345.424L595.668 490.755L418.324 489.878Z" fill="url(#paint1_linear_1_3)" stroke="black" stroke-width="0.00666667"/>
<path d="M164.61 343.75C73.6977 343.75 0 417.456 0 508.375C0 599.294 73.6977 673 164.61 673C255.522 673 329.22 599.295 329.22 508.375C329.22 417.454 255.522 343.75 164.61 343.75ZM164.61 389.239C230.296 389.239 283.736 442.684 283.736 508.376C283.736 574.069 230.296 627.514 164.61 627.514C98.9231 627.514 45.4833 574.069 45.4833 508.376C45.4833 442.684 98.9231 389.239 164.61 389.239ZM632.39 343.75C541.478 343.75 467.78 417.456 467.78 508.375C467.78 599.294 541.478 673 632.39 673C723.302 673 797 599.295 797 508.375C797 417.454 723.302 343.75 632.39 343.75ZM632.39 389.239C698.077 389.239 751.517 442.684 751.517 508.376C751.517 574.069 698.077 627.514 632.39 627.514C566.704 627.514 513.264 574.069 513.264 508.376C513.264 442.684 566.704 389.239 632.39 389.239ZM284.479 199.305C205.695 199.305 180.49 165.269 177.875 161.389C175.899 158.456 174.759 155.04 174.575 151.508C174.392 147.977 175.172 144.461 176.833 141.339C178.494 138.217 180.973 135.605 184.004 133.784C187.036 131.963 190.505 131 194.042 131H249.108C259.875 131 268.602 139.728 268.602 150.495C268.602 153.766 267.797 156.847 266.374 159.553C271.893 160.039 277.916 160.316 284.479 160.316C295.245 160.316 303.972 169.044 303.972 179.811C303.972 190.579 295.245 199.305 284.479 199.305ZM184.637 508.375C184.637 519.437 175.67 528.404 164.61 528.404C153.549 528.404 144.582 519.437 144.582 508.375C144.582 497.313 153.549 488.346 164.61 488.346C175.67 488.346 184.637 497.313 184.637 508.375ZM652.281 508.375C652.281 519.362 643.375 528.267 632.39 528.267C621.404 528.267 612.5 519.362 612.5 508.375C612.5 497.388 621.406 488.483 632.39 488.483C643.376 488.483 652.281 497.39 652.281 508.375ZM455.361 197.658L557.799 189.294C573.357 188.024 586.999 199.609 588.269 215.167C589.539 230.726 577.956 244.369 562.399 245.64C561.221 245.736 560.052 245.758 558.9 245.711L555.089 245.524L453.29 240.614C441.479 240.044 432.366 230.007 432.936 218.195C433.461 207.32 442.007 198.734 452.577 197.882L455.361 197.658Z" fill="#57A6F5" stroke="black" stroke-width="0.00666667"/>
<path d="M390.5 545C411.211 545 428 527.987 428 507C428 486.013 411.211 469 390.5 469C369.789 469 353 486.013 353 507C353 527.987 369.789 545 390.5 545Z" fill="white" stroke="black" stroke-width="0.00666667"/>
</g>
<defs>
<linearGradient id="paint0_linear_1_3" x1="425.993" y1="311" x2="425.993" y2="417" gradientUnits="userSpaceOnUse">
<stop stop-color="#3873E5"/>
<stop offset="1" stop-color="#2A5CDD"/>
</linearGradient>
<linearGradient id="paint1_linear_1_3" x1="397.995" y1="155" x2="397.995" y2="527" gradientUnits="userSpaceOnUse">
<stop stop-color="#3873E5"/>
<stop offset="1" stop-color="#2A5CDD"/>
</linearGradient>
<clipPath id="clip0_1_3">
<rect width="800" height="800" fill="white"/>
</clipPath>
</defs>
</svg>
