<svg width="800" height="800" viewBox="0 0 800 800" fill="none" xmlns="http://www.w3.org/2000/svg">
	<g clip-path="url(#clip0_6_15)">
		<path
			d="M334.427 757.855C334.427 781.13 363.785 800 400 800C436.216 800 465.574 781.131 465.574 757.855H334.427Z"
			fill="#FFCD9B" />
		<path
			d="M688.525 514.277H400H111.475C111.475 514.277 59.0156 566.736 59.0156 619.195C59.0156 619.195 242.622 514.277 281.967 684.769C289.941 719.325 295.081 802.802 400 763.458C504.919 802.802 510.059 719.325 518.033 684.769C557.377 514.277 740.984 619.195 740.984 619.195C740.983 566.736 688.525 514.277 688.525 514.277Z"
			fill="#FFDEB7" />
		<path
			d="M466.556 249.18C466.556 249.18 663.278 0 728.851 0C768.195 0 702.622 314.755 663.278 419.672L466.556 249.18Z"
			fill="#FF8C46" />
		<path
			d="M728.851 0C597.703 91.8031 545.244 314.755 545.244 314.755L540.73 313.464L466.556 249.181C466.556 249.181 663.276 0 728.851 0Z"
			fill="#FFA54B" />
		<path
			d="M320.328 249.18C320.328 249.18 123.606 0 58.0329 0C18.6892 0 84.2626 314.755 123.606 419.672L320.328 249.18Z"
			fill="#FF8C46" />
		<path
			d="M58.0327 0C189.18 91.8031 241.639 314.755 241.639 314.755L246.153 313.464L320.326 249.181C320.326 249.181 123.606 0 58.0327 0Z"
			fill="#FFA54B" />
		<path
			d="M19.6719 603.278C19.6719 603.278 163.934 511.475 268.852 577.048C324.458 611.803 308.195 707.65 399.998 707.65C491.802 707.65 475.539 611.803 531.145 577.048C636.064 511.475 780.325 603.278 780.325 603.278C714.752 367.212 548.331 209.836 399.998 209.836C251.666 209.836 85.2453 367.212 19.6719 603.278Z"
			fill="#FFA54B" />
		<path
			d="M295.081 537.705C309.568 537.705 321.311 525.961 321.311 511.475C321.311 496.989 309.568 485.245 295.081 485.245C280.595 485.245 268.852 496.989 268.852 511.475C268.852 525.961 280.595 537.705 295.081 537.705Z"
			fill="#464655" />
		<path
			d="M504.919 537.705C519.405 537.705 531.148 525.961 531.148 511.475C531.148 496.989 519.405 485.245 504.919 485.245C490.432 485.245 478.689 496.989 478.689 511.475C478.689 525.961 490.432 537.705 504.919 537.705Z"
			fill="#464655" />
		<path
			d="M445.902 700.272C445.902 716.116 425.35 740.436 400 740.436C374.65 740.436 354.099 716.116 354.099 700.272C354.099 684.428 374.65 671.583 400 671.583C425.35 671.583 445.902 684.428 445.902 700.272Z"
			fill="#464655" />
		<path
			d="M777.796 155.916C777.796 74.8122 714.135 9.06519 635.606 9.06519C557.077 9.06519 493.416 74.8131 493.416 155.916C493.416 192.592 506.435 226.126 527.959 251.861H527.958L559.06 308.239C567.183 323.279 570.199 332.991 583.811 332.991H685.224C698.837 332.991 702.842 322.764 709.975 308.239L743.253 251.861H743.251C764.775 226.126 777.796 192.592 777.796 155.916Z"
			fill="#FFE46A" />
		<path
			d="M502.212 173.8C502.212 89.9898 565.382 20.7211 647.388 9.61856C643.297 9.25286 639.191 9.06822 635.084 9.06519C556.555 9.06519 492.894 74.8131 492.894 155.916C492.894 182.605 499.794 207.626 511.843 229.193C505.607 211.872 502.212 193.227 502.212 173.8Z"
			fill="#FFF0B7" />
		<path
			d="M777.796 156.23C777.796 127.18 769.626 100.103 755.534 77.3093C758.551 89.2121 760.077 101.444 760.077 113.723C760.077 210.22 666.643 288.809 549.923 291.991L559.06 308.555C567.183 323.594 570.199 333.306 583.811 333.306H685.224C698.837 333.306 702.842 323.079 709.975 308.555L743.253 252.176H743.251C764.775 226.44 777.796 192.906 777.796 156.23Z"
			fill="#FFDA00" />
		<path
			d="M695.385 181.115C695.523 180.994 695.659 180.883 695.798 180.75C698.373 178.287 700.493 174.357 698.718 170.711C691.439 155.767 669.183 151.026 652.967 155.975C652.145 156.226 651.349 156.498 650.576 156.793C641.742 151.635 630.774 150.395 621.012 153.496C619.857 153.862 618.722 154.292 617.614 154.783C612.27 151.661 606.018 150.103 599.79 150.706C586.753 151.967 575.424 162.54 573.179 175.42L572.152 176.055C581.036 190.413 604.421 231.551 605.92 249.253C607.809 271.586 605.921 332.206 605.902 332.816L616.982 333.166C617.062 330.651 618.91 271.29 616.965 248.318C616.098 238.076 609.831 221.751 598.337 199.798C592.972 189.551 587.764 180.555 584.611 175.246C586.791 168.183 593.489 162.453 600.857 161.741C603.101 161.524 605.377 161.775 607.556 162.414C606.736 163.464 606.018 164.589 605.412 165.775C601.674 173.106 603.236 182.31 609.046 187.186C612.487 190.073 617.487 191.136 622.097 189.957C626.39 188.86 629.708 186.038 631.2 182.217C632.541 178.782 632.427 174.817 630.861 170.432C629.955 167.91 628.695 165.529 627.12 163.36C631.304 162.555 635.622 162.791 639.693 164.048C638.109 165.872 636.896 167.903 636.099 170.104C634.396 174.817 635.149 180.417 638.065 184.721C640.579 188.431 644.399 190.636 648.549 190.773C648.687 190.778 648.827 190.78 648.964 190.78C652.6 190.78 656.05 189.217 658.722 186.349C661.86 182.98 663.457 178.302 662.994 173.836C662.699 170.998 661.689 168.221 660.063 165.645C671.367 163.591 682.425 167.41 687.208 173.207C684.321 178.011 678.393 188.09 672.262 199.8C660.769 221.754 654.5 238.079 653.634 248.32C651.691 271.292 653.538 330.653 653.617 333.168L664.697 332.818C664.678 332.208 662.79 271.591 664.68 249.255C666.028 233.318 685.108 198.402 695.385 181.115ZM620.872 178.186C620.614 178.847 619.642 179.142 619.35 179.217C618.195 179.512 616.888 179.296 616.17 178.695C614.309 177.133 613.904 173.522 615.286 170.813C615.74 169.94 616.315 169.137 616.995 168.427C618.484 170.115 619.667 172.053 620.42 174.162C621.034 175.88 621.199 177.348 620.872 178.186ZM650.61 178.79C650.286 179.136 649.626 179.706 648.911 179.692C648.143 179.667 647.535 178.935 647.241 178.501C646.323 177.146 646.029 175.243 646.524 173.873C647.095 172.294 648.197 171.001 649.483 169.961C650.915 171.579 651.793 173.318 651.966 174.981C652.099 176.248 651.553 177.778 650.61 178.79Z"
			fill="#FAAF63" />
		<path
			d="M689.867 358.026H580.823C574.725 358.026 569.737 363.015 569.737 369.112V375.54C569.737 381.637 574.725 386.625 580.823 386.625H616.041C605.54 390.532 594.452 399.822 594.452 410.595V414.919C602.88 424.392 610.729 440.861 625.679 440.861H645.902C657.679 440.861 666.045 428.147 676.237 414.919V410.595C676.237 399.822 665.658 390.532 655.406 386.625H689.867C695.964 386.625 700.953 381.637 700.953 375.54V369.112C700.953 363.015 695.964 358.026 689.867 358.026Z"
			fill="#6B83A5" />
		<path
			d="M697.695 358.026H572.994C566.897 358.026 561.908 353.038 561.908 346.941V340.513C561.908 334.416 566.897 329.427 572.994 329.427H697.695C703.792 329.427 708.781 334.416 708.781 340.513V346.941C708.781 353.038 703.792 358.026 697.695 358.026ZM691.222 404.139V397.712C691.222 391.615 686.233 386.626 680.136 386.626H590.553C584.456 386.626 579.467 391.615 579.467 397.712V404.139C579.467 410.237 584.456 415.225 590.553 415.225H680.136C686.233 415.225 691.222 410.237 691.222 404.139Z"
			fill="#ABBDDB" />
	</g>
	<defs>
		<clipPath id="clip0_6_15">
			<rect width="800" height="800" fill="white" />
		</clipPath>
	</defs>
</svg>