<svg width="800" height="800" viewBox="0 0 800 800" fill="none" xmlns="http://www.w3.org/2000/svg">
<path d="M334.427 757.855C334.427 781.13 363.785 800 400 800C436.216 800 465.574 781.131 465.574 757.855H334.427Z" fill="#FFCD9B"/>
<path d="M688.525 514.277H400H111.475C111.475 514.277 59.0156 566.736 59.0156 619.195C59.0156 619.195 242.622 514.277 281.967 684.769C289.941 719.325 295.081 802.802 400 763.458C504.919 802.802 510.059 719.325 518.033 684.769C557.377 514.277 740.984 619.195 740.984 619.195C740.983 566.736 688.525 514.277 688.525 514.277Z" fill="#FFDEB7"/>
<path d="M466.556 249.18C466.556 249.18 663.278 0 728.851 0C768.195 0 702.622 314.755 663.278 419.672L466.556 249.18Z" fill="#FF8C46"/>
<path d="M728.851 0C597.703 91.8031 545.244 314.755 545.244 314.755L540.73 313.464L466.556 249.181C466.556 249.181 663.276 0 728.851 0Z" fill="#FFA54B"/>
<path d="M320.328 249.18C320.328 249.18 123.606 0 58.0329 0C18.6892 0 84.2626 314.755 123.606 419.672L320.328 249.18Z" fill="#FF8C46"/>
<path d="M58.0327 0C189.18 91.8031 241.639 314.755 241.639 314.755L246.153 313.464L320.326 249.181C320.326 249.181 123.606 0 58.0327 0Z" fill="#FFA54B"/>
<path d="M19.6719 603.278C19.6719 603.278 163.934 511.475 268.852 577.048C324.458 611.803 308.195 707.65 399.998 707.65C491.802 707.65 475.539 611.803 531.145 577.048C636.064 511.475 780.325 603.278 780.325 603.278C714.752 367.212 548.331 209.836 399.998 209.836C251.666 209.836 85.2453 367.212 19.6719 603.278Z" fill="#FFA54B"/>
<path d="M295.081 537.705C309.568 537.705 321.311 525.961 321.311 511.475C321.311 496.989 309.568 485.245 295.081 485.245C280.595 485.245 268.852 496.989 268.852 511.475C268.852 525.961 280.595 537.705 295.081 537.705Z" fill="#464655"/>
<path d="M504.919 537.705C519.405 537.705 531.148 525.961 531.148 511.475C531.148 496.989 519.405 485.245 504.919 485.245C490.432 485.245 478.689 496.989 478.689 511.475C478.689 525.961 490.432 537.705 504.919 537.705Z" fill="#464655"/>
<path d="M445.902 700.272C445.902 716.116 425.35 740.436 400 740.436C374.65 740.436 354.099 716.116 354.099 700.272C354.099 684.428 374.65 671.583 400 671.583C425.35 671.583 445.902 684.428 445.902 700.272Z" fill="#464655"/>
<g clip-path="url(#clip0_6_81)">
<path d="M513.109 126.553V89.3742C513.109 50.8675 488.545 35.5977 459.997 35.5977C431.449 35.5977 406.884 51.5314 406.884 89.3742V126.553" fill="#3AC2F2"/>
<path d="M460.66 35.5977C489.209 35.5977 513.109 51.5314 513.109 89.3742V126.553H459.997" fill="#009CC6"/>
<path d="M519.748 186.305V143.151C519.748 99.9967 491.864 82.0712 459.997 82.0712C428.129 82.0712 400.245 99.9967 400.245 143.151V186.305" fill="#FFC114"/>
<path d="M460.66 82.0712C492.528 82.0712 519.748 99.9967 519.748 143.151V186.305H459.997" fill="#FCA12A"/>
<path d="M539.665 325.725V251.368C539.665 181.657 504.478 153.109 459.997 153.109C415.515 153.109 380.328 181.657 380.328 251.368V319.086" fill="#3AC2F2"/>
<path d="M539.666 325.725V251.368C539.666 181.657 505.143 153.109 459.333 153.109" fill="#009CC6"/>
<path d="M459.997 403.402C504.73 403.402 540.993 367.139 540.993 322.406C540.993 277.672 504.73 241.409 459.997 241.409C415.263 241.409 379 277.672 379 322.406C379 367.139 415.263 403.402 459.997 403.402Z" fill="#EAEAEA"/>
<path d="M459.997 241.409C504.478 241.409 540.993 277.924 540.993 322.406C540.993 366.887 504.478 403.402 459.997 403.402" fill="#C4C4C4"/>
<path d="M459.997 376.182C489.697 376.182 513.773 352.106 513.773 322.406C513.773 292.706 489.697 268.629 459.997 268.629C430.297 268.629 406.22 292.706 406.22 322.406C406.22 352.106 430.297 376.182 459.997 376.182Z" fill="#2F423F"/>
<path d="M459.997 354.937C477.963 354.937 492.528 340.372 492.528 322.406C492.528 304.439 477.963 289.874 459.997 289.874C442.03 289.874 427.465 304.439 427.465 322.406C427.465 340.372 442.03 354.937 459.997 354.937Z" fill="#009CC6"/>
<path d="M459.997 289.874C477.922 289.874 492.528 304.48 492.528 322.406C492.528 340.331 477.922 354.937 459.997 354.937" fill="#007E9B"/>
<path d="M440.08 323.07C450.346 323.07 458.669 314.747 458.669 304.48C458.669 294.214 450.346 285.891 440.08 285.891C429.813 285.891 421.49 294.214 421.49 304.48C421.49 314.747 429.813 323.07 440.08 323.07Z" fill="white"/>
<path d="M481.242 357.593C486.742 357.593 491.2 353.134 491.2 347.634C491.2 342.134 486.742 337.676 481.242 337.676C475.742 337.676 471.283 342.134 471.283 347.634C471.283 353.134 475.742 357.593 481.242 357.593Z" fill="white"/>
<path d="M482.57 99.9967H444.063L435.432 105.972L445.391 113.275H482.57C485.889 113.275 488.545 111.283 488.545 106.636C488.545 101.988 485.889 99.9967 482.57 99.9967Z" fill="#FCA12A"/>
<path d="M482.57 113.275H444.063L435.432 122.57L445.391 133.192H482.57C485.889 133.192 488.545 127.881 488.545 123.233C488.545 118.586 485.889 113.275 482.57 113.275Z" fill="#FCA12A"/>
<path d="M479.914 121.242C479.914 123.897 477.258 126.553 474.603 126.553H438.752C436.096 126.553 433.44 123.897 433.44 121.242V118.586C433.44 115.93 436.096 113.275 438.752 113.275H474.603C477.258 113.275 479.914 115.93 479.914 118.586V121.242Z" fill="#EAEAEA"/>
<path d="M479.914 101.324C479.914 103.98 477.258 106.636 474.603 106.636H438.752C436.096 106.636 433.44 103.98 433.44 101.324V98.6689C433.44 96.0132 436.096 93.3576 438.752 93.3576H474.603C477.258 93.3576 479.914 96.0132 479.914 98.6689V101.324Z" fill="#EAEAEA"/>
<path d="M482.57 133.192H444.063L435.432 142.487L445.391 153.109H482.57C485.889 153.109 488.545 147.798 488.545 143.151C488.545 138.503 485.889 133.192 482.57 133.192Z" fill="#FCA12A"/>
<path d="M479.914 141.159C479.914 143.815 477.258 146.47 474.603 146.47H438.752C436.096 146.47 433.44 143.815 433.44 141.159V138.503C433.44 135.848 436.096 133.192 438.752 133.192H474.603C477.258 133.192 479.914 135.848 479.914 138.503V141.159Z" fill="#EAEAEA"/>
<path d="M752.116 126.553V89.3742C752.116 50.8675 727.551 35.5977 699.003 35.5977C670.455 35.5977 645.891 51.5314 645.891 89.3742V126.553" fill="#3AC2F2"/>
<path d="M699.667 35.5977C728.215 35.5977 752.116 51.5314 752.116 89.3742V126.553H699.003" fill="#009CC6"/>
<path d="M758.755 186.305V143.151C758.755 99.9967 730.871 82.0712 699.003 82.0712C667.136 82.0712 639.251 99.9967 639.251 143.151V186.305" fill="#FFC114"/>
<path d="M699.667 82.0712C731.535 82.0712 758.755 99.9967 758.755 143.151V186.305H699.003" fill="#FCA12A"/>
<path d="M778.672 325.725V251.368C778.672 181.657 743.485 153.109 699.003 153.109C654.522 153.109 619.334 181.657 619.334 251.368V319.086" fill="#3AC2F2"/>
<path d="M778.672 325.725V251.368C778.672 181.657 745.477 153.109 699.003 153.109V259.334" fill="#009CC6"/>
<path d="M699.004 403.402C743.737 403.402 780 367.139 780 322.406C780 277.672 743.737 241.409 699.004 241.409C654.27 241.409 618.007 277.672 618.007 322.406C618.007 367.139 654.27 403.402 699.004 403.402Z" fill="#EAEAEA"/>
<path d="M699.003 241.409C743.485 241.409 780 277.924 780 322.406C780 366.887 743.485 403.402 699.003 403.402" fill="#C4C4C4"/>
<path d="M699.003 376.182C728.703 376.182 752.78 352.106 752.78 322.406C752.78 292.706 728.703 268.629 699.003 268.629C669.303 268.629 645.227 292.706 645.227 322.406C645.227 352.106 669.303 376.182 699.003 376.182Z" fill="#2F423F"/>
<path d="M699.003 354.937C716.97 354.937 731.535 340.372 731.535 322.406C731.535 304.439 716.97 289.874 699.003 289.874C681.037 289.874 666.472 304.439 666.472 322.406C666.472 340.372 681.037 354.937 699.003 354.937Z" fill="#009CC6"/>
<path d="M699.003 289.874C716.929 289.874 731.535 304.48 731.535 322.406C731.535 340.331 716.929 354.937 699.003 354.937" fill="#007E9B"/>
<path d="M679.75 323.07C690.017 323.07 698.339 314.747 698.339 304.48C698.339 294.214 690.017 285.891 679.75 285.891C669.483 285.891 661.161 294.214 661.161 304.48C661.161 314.747 669.483 323.07 679.75 323.07Z" fill="white"/>
<path d="M720.249 357.593C725.749 357.593 730.207 353.134 730.207 347.634C730.207 342.134 725.749 337.676 720.249 337.676C714.749 337.676 710.29 342.134 710.29 347.634C710.29 353.134 714.749 357.593 720.249 357.593Z" fill="white"/>
<path d="M722.24 99.9967H683.733L675.103 105.972L685.061 113.275H722.24C725.56 113.275 728.215 111.283 728.215 106.636C728.215 101.988 725.56 99.9967 722.24 99.9967Z" fill="#FCA12A"/>
<path d="M722.24 113.275H683.733L675.103 122.57L685.061 133.192H722.24C725.56 133.192 728.215 127.881 728.215 123.233C728.215 118.586 725.56 113.275 722.24 113.275Z" fill="#FCA12A"/>
<path d="M718.921 121.242C718.921 123.897 716.265 126.553 713.61 126.553H677.759C675.103 126.553 672.447 123.897 672.447 121.242V118.586C672.447 115.93 675.103 113.275 677.759 113.275H713.61C716.265 113.275 718.921 115.93 718.921 118.586V121.242Z" fill="#EAEAEA"/>
<path d="M718.921 101.324C718.921 103.98 716.265 106.636 713.61 106.636H677.759C675.103 106.636 672.447 103.98 672.447 101.324V98.6689C672.447 96.0132 675.103 93.3576 677.759 93.3576H713.61C716.265 93.3576 718.921 96.0132 718.921 98.6689V101.324Z" fill="#EAEAEA"/>
<path d="M722.24 133.192H683.733L675.103 142.487L685.061 153.109H722.24C725.56 153.109 728.215 147.798 728.215 143.151C728.215 138.503 725.56 133.192 722.24 133.192Z" fill="#FCA12A"/>
<path d="M718.921 141.159C718.921 143.815 716.265 146.47 713.61 146.47H677.759C675.103 146.47 672.447 143.815 672.447 141.159V138.503C672.447 135.848 675.103 133.192 677.759 133.192H713.61C716.265 133.192 718.921 135.848 718.921 138.503V141.159Z" fill="#EAEAEA"/>
<path d="M618.007 250.04C618.007 216.18 625.974 193.608 639.252 177.674V143.151C639.252 129.873 645.891 119.25 645.891 110.619C639.252 107.3 627.301 106.636 616.679 106.636H542.321C531.035 106.636 519.748 107.3 513.109 110.619C513.109 119.25 519.748 129.873 519.748 143.151V177.674C533.027 193.608 540.33 217.508 540.993 250.704L542.985 252.695H616.679L618.007 250.04Z" fill="#007E9B"/>
<path d="M540.993 250.704L542.985 252.695H616.679L618.006 250.04C618.006 216.18 625.973 193.608 639.251 177.674V143.151C639.251 129.873 645.891 119.25 645.891 110.619C639.251 107.3 625.309 106.636 614.687 106.636" fill="#009CC6"/>
</g>
<defs>
<clipPath id="clip0_6_81">
<rect width="401" height="401" fill="white" transform="translate(379 19)"/>
</clipPath>
</defs>
</svg>
