<svg width="800" height="800" viewBox="0 0 800 800" fill="none" xmlns="http://www.w3.org/2000/svg">
<g clip-path="url(#clip0_6_49)">
<path d="M334.427 757.855C334.427 781.13 363.785 800 400 800C436.216 800 465.574 781.131 465.574 757.855H334.427Z" fill="#FFCD9B"/>
<path d="M688.525 514.277H400H111.475C111.475 514.277 59.0156 566.736 59.0156 619.195C59.0156 619.195 242.622 514.277 281.967 684.769C289.941 719.325 295.081 802.802 400 763.458C504.919 802.802 510.059 719.325 518.033 684.769C557.377 514.277 740.984 619.195 740.984 619.195C740.983 566.736 688.525 514.277 688.525 514.277Z" fill="#FFDEB7"/>
<path d="M466.556 249.18C466.556 249.18 663.278 0 728.851 0C768.195 0 702.622 314.755 663.278 419.672L466.556 249.18Z" fill="#FF8C46"/>
<path d="M728.851 0C597.703 91.8031 545.244 314.755 545.244 314.755L540.73 313.464L466.556 249.181C466.556 249.181 663.276 0 728.851 0Z" fill="#FFA54B"/>
<path d="M320.328 249.18C320.328 249.18 123.606 0 58.0329 0C18.6892 0 84.2626 314.755 123.606 419.672L320.328 249.18Z" fill="#FF8C46"/>
<path d="M58.0327 0C189.18 91.8031 241.639 314.755 241.639 314.755L246.153 313.464L320.326 249.181C320.326 249.181 123.606 0 58.0327 0Z" fill="#FFA54B"/>
<path d="M19.6719 603.278C19.6719 603.278 163.934 511.475 268.852 577.048C324.458 611.803 308.195 707.65 399.998 707.65C491.802 707.65 475.539 611.803 531.145 577.048C636.064 511.475 780.325 603.278 780.325 603.278C714.752 367.212 548.331 209.836 399.998 209.836C251.666 209.836 85.2453 367.212 19.6719 603.278Z" fill="#FFA54B"/>
<path d="M295.081 537.705C309.568 537.705 321.311 525.961 321.311 511.475C321.311 496.989 309.568 485.245 295.081 485.245C280.595 485.245 268.852 496.989 268.852 511.475C268.852 525.961 280.595 537.705 295.081 537.705Z" fill="#464655"/>
<path d="M504.919 537.705C519.405 537.705 531.148 525.961 531.148 511.475C531.148 496.989 519.405 485.245 504.919 485.245C490.432 485.245 478.689 496.989 478.689 511.475C478.689 525.961 490.432 537.705 504.919 537.705Z" fill="#464655"/>
<path d="M445.902 700.272C445.902 716.116 425.35 740.436 400 740.436C374.65 740.436 354.099 716.116 354.099 700.272C354.099 684.428 374.65 671.583 400 671.583C425.35 671.583 445.902 684.428 445.902 700.272Z" fill="#464655"/>
<path d="M800.119 244.132C800.111 283.699 788.371 322.375 766.383 355.269C744.394 388.164 713.146 413.8 676.588 428.935C640.031 444.071 599.806 448.026 561.001 440.301C522.195 432.576 486.552 413.518 458.577 385.537C430.603 357.555 411.555 321.907 403.84 283.099C396.125 244.292 400.091 204.068 415.236 167.515C430.381 130.961 456.025 99.7194 488.925 77.7398C521.826 55.7601 560.504 44.0298 600.071 44.0321C626.346 44.0306 652.365 49.2057 676.64 59.2617C700.915 69.3178 722.971 84.0578 741.548 102.64C760.125 121.222 774.86 143.282 784.91 167.559C794.959 191.837 800.128 217.857 800.119 244.132Z" fill="#F44B41"/>
<path d="M747.164 244.132C747.156 273.227 738.521 301.667 722.35 325.855C706.179 350.042 683.2 368.892 656.316 380.019C629.433 391.146 599.853 394.052 571.318 388.369C542.783 382.686 516.575 368.669 496.006 348.09C475.437 327.512 461.432 301.296 455.763 272.759C450.093 244.221 453.013 214.643 464.153 187.765C475.293 160.887 494.153 137.916 518.349 121.756C542.544 105.597 570.987 96.9748 600.083 96.9805C639.098 96.9973 676.51 112.508 704.092 140.103C731.673 167.698 747.166 205.117 747.164 244.132Z" fill="#F4F4F4"/>
<path d="M692.122 244.132C692.119 262.335 686.718 280.128 676.603 295.262C666.487 310.395 652.111 322.189 635.293 329.153C618.474 336.116 599.969 337.937 582.116 334.383C564.263 330.83 547.866 322.063 534.995 309.19C522.125 296.318 513.361 279.918 509.811 262.064C506.261 244.211 508.085 225.706 515.051 208.889C522.018 192.072 533.815 177.698 548.951 167.586C564.086 157.473 581.88 152.076 600.083 152.076C612.173 152.07 624.145 154.448 635.315 159.072C646.486 163.697 656.634 170.478 665.182 179.027C673.73 187.577 680.509 197.728 685.132 208.899C689.754 220.07 692.13 232.042 692.122 244.132Z" fill="#F44B41"/>
<path d="M641.378 244.132C641.382 252.306 638.961 260.297 634.422 267.095C629.883 273.892 623.429 279.191 615.878 282.32C608.327 285.449 600.018 286.269 592.001 284.674C583.984 283.08 576.621 279.144 570.841 273.364C565.062 267.584 561.127 260.219 559.534 252.202C557.941 244.185 558.761 235.876 561.892 228.326C565.022 220.775 570.322 214.323 577.12 209.784C583.918 205.246 591.91 202.826 600.083 202.831C611.033 202.842 621.531 207.197 629.274 214.94C637.016 222.683 641.369 233.182 641.378 244.132Z" fill="#F4F4F4"/>
<path d="M606.61 247.511C606.137 248.53 605.468 249.446 604.642 250.206C603.815 250.967 602.847 251.557 601.793 251.944C600.738 252.33 599.617 252.505 598.495 252.458C597.373 252.411 596.27 252.144 595.252 251.671C594.233 251.199 593.317 250.53 592.556 249.703C591.796 248.877 591.206 247.909 590.819 246.854C590.433 245.799 590.259 244.679 590.305 243.557C590.352 242.434 590.619 241.332 591.091 240.313L686.712 35.4282C687.167 34.3753 687.829 33.4242 688.657 32.6313C689.486 31.8383 690.465 31.2195 691.537 30.8115C692.609 30.4035 693.752 30.2145 694.898 30.2557C696.044 30.2969 697.17 30.5674 698.21 31.0514C699.25 31.5353 700.182 32.2228 700.952 33.0732C701.722 33.9236 702.313 34.9197 702.691 36.0025C703.069 37.0854 703.226 38.233 703.153 39.3776C703.08 40.5222 702.778 41.6406 702.265 42.6665L606.61 247.511Z" fill="#163844"/>
<path d="M685.289 38.732L671.217 0L636.263 74.8487L650.306 113.563L685.289 38.732Z" fill="#27B7FF"/>
<path d="M704.389 106.69L665.726 120.703L700.622 45.8605L739.25 31.8061L704.389 106.69Z" fill="#27B7FF"/>
</g>
<defs>
<clipPath id="clip0_6_49">
<rect width="800" height="800" fill="white"/>
</clipPath>
</defs>
</svg>
