<svg width="800" height="800" viewBox="0 0 800 800" fill="none" xmlns="http://www.w3.org/2000/svg">
<g clip-path="url(#clip0_2_54)">
<path d="M683.324 407.708C618.993 407.708 566.675 460.039 566.675 524.37C566.675 588.676 618.993 641.02 683.324 641.02C747.657 641.02 800 588.676 800 524.37C800 460.039 747.657 407.708 683.324 407.708Z" fill="url(#paint0_linear_2_54)"/>
<path d="M683.324 466.02C651.172 466.02 625 492.191 625 524.37C625 556.523 651.172 582.694 683.324 582.694C715.503 582.694 741.675 556.523 741.675 524.37C741.675 492.191 715.503 466.02 683.324 466.02Z" fill="white"/>
<path d="M683.349 541.02C677.465 541.02 671.752 537.895 668.726 532.378L602.052 410.686C597.634 402.605 600.587 392.497 608.668 388.053C616.723 383.634 626.856 386.587 631.275 394.669L697.95 516.36C702.368 524.416 699.415 534.55 691.334 538.968C688.793 540.361 686.059 541.02 683.349 541.02Z" fill="#E6E9ED"/>
<path d="M116.674 407.708C52.3432 407.708 0 460.039 0 524.37C0 588.676 52.3448 641.02 116.674 641.02C181.004 641.02 233.325 588.676 233.325 524.37C233.325 460.039 181.005 407.708 116.674 407.708Z" fill="url(#paint1_linear_2_54)"/>
<path d="M116.674 466.02C84.4968 466.02 58.3245 492.191 58.3245 524.37C58.3245 556.523 84.4968 582.694 116.674 582.694C148.828 582.694 175 556.523 175 524.37C175 492.191 148.828 466.02 116.674 466.02Z" fill="white"/>
<path d="M732.96 302.798C724.708 263.808 699.34 207.656 625.512 161.514C619.018 157.461 610.621 158.341 605.128 163.638L571.777 195.693C566.528 200.746 565.161 208.632 568.432 215.151L585.326 248.941C555.295 241.934 511.301 233.634 471.531 233.634C446.557 233.634 425.926 236.98 410.178 243.62C379.929 256.388 352.243 301.798 340.574 323.113L84.1314 292.446C77.1485 291.617 70.4108 295.229 67.2608 301.504C65.3326 305.337 63.5748 311.612 66.2592 319.62C70.678 332.803 87.4752 353.188 178.735 404.533C203.54 418.499 228.15 431.472 246.436 440.921L109.229 509.452C102.636 512.724 98.9989 519.926 100.244 527.177C101.49 534.404 107.301 539.995 114.601 540.898L242.263 556.841L271.56 586.136C274.685 589.262 278.909 591.019 283.327 591.019H533.328C537.82 591.019 542.142 589.213 545.267 585.99C548.392 582.791 550.101 578.446 550.003 573.953C549.978 573.099 548.514 488.333 600.59 434.769C628.641 405.925 667.727 391.203 716.727 391.031C724.124 391.006 730.619 386.1 732.669 378.995C733.057 377.653 742.066 345.644 732.96 302.798Z" fill="url(#paint2_linear_2_54)"/>
<path d="M340.575 323.111L84.1314 292.446C77.1485 291.617 70.4108 295.229 67.2608 301.504C65.3326 305.337 63.5748 311.612 66.2592 319.62C70.678 332.803 87.4752 353.188 178.735 404.533C203.54 418.499 228.15 431.473 246.436 440.921C246.436 440.921 251.514 349.355 340.575 323.111Z" fill="url(#paint3_linear_2_54)"/>
<path d="M585.327 248.941C555.297 241.934 511.302 233.634 471.533 233.634C446.559 233.634 425.927 236.98 410.18 243.62C379.931 256.388 352.244 301.798 340.575 323.113C340.575 323.113 381.983 333.977 465.576 311.175C578.077 280.484 585.327 248.941 585.327 248.941Z" fill="url(#paint4_linear_2_54)"/>
<path d="M341.772 591.019L212.476 457.865L246.436 440.921L390.039 591.019H341.772Z" fill="#E6E9ED"/>
<path d="M614.551 360.977L510.155 412.444L572.413 475.444C579.396 461.161 588.551 447.123 600.587 434.769C617.26 417.619 637.842 405.461 662.083 398.38L614.551 360.977Z" fill="#E6E9ED"/>
</g>
<defs>
<linearGradient id="paint0_linear_2_54" x1="683.335" y1="407.708" x2="683.335" y2="641.02" gradientUnits="userSpaceOnUse">
<stop stop-color="#3873E5"/>
<stop offset="1" stop-color="#2A5CDD"/>
</linearGradient>
<linearGradient id="paint1_linear_2_54" x1="116.66" y1="407.708" x2="116.66" y2="641.02" gradientUnits="userSpaceOnUse">
<stop stop-color="#3873E5"/>
<stop offset="1" stop-color="#2A5CDD"/>
</linearGradient>
<linearGradient id="paint2_linear_2_54" x1="400.953" y1="158.979" x2="400.953" y2="591.019" gradientUnits="userSpaceOnUse">
<stop stop-color="#58A8F6"/>
<stop offset="1" stop-color="#3B78E7"/>
</linearGradient>
<linearGradient id="paint3_linear_2_54" x1="202.729" y1="292.329" x2="202.729" y2="440.921" gradientUnits="userSpaceOnUse">
<stop stop-color="#3873E5"/>
<stop offset="1" stop-color="#2A5CDD"/>
</linearGradient>
<linearGradient id="paint4_linear_2_54" x1="462.949" y1="233.634" x2="462.949" y2="325.699" gradientUnits="userSpaceOnUse">
<stop stop-color="#3873E5"/>
<stop offset="1" stop-color="#2A5CDD"/>
</linearGradient>
<clipPath id="clip0_2_54">
<rect width="800" height="800" fill="white"/>
</clipPath>
</defs>
</svg>
